HIERARCHY
ROOT Pelvis
{
	OFFSET 0.000000 0.000000 0.000000
	CHANNELS 6 Xposition Yposition Zposition Xrotation Yrotation Zrotation
	JOINT LeftUpLeg_virtual
	{
		OFFSET 0.000000 0.000000 0.000000
		CHANNELS 3 Xrotation Yrotation Zrotation
		JOINT LeftUpLeg
		{
			OFFSET 18.735201 -5.666702 -4.541200
			CHANNELS 3 Xrotation Yrotation Zrotation
			JOINT LeftLeg
			{
				OFFSET -0.021200 -31.938179 0.493100
				CHANNELS 3 Xrotation Yrotation Zrotation
				JOINT LeftFoot
				{
					OFFSET 0.021200 -31.938179 -4.336299
					CHANNELS 3 Xrotation Yrotation Zrotation
					JOINT LeftToeBase
					{
						OFFSET 0.943001 -26.722000 15.023500
						CHANNELS 3 Xrotation Yrotation Zrotation
						End Site
						{
							OFFSET 0 0 0
						}
					}
				}
			}
		}
	}
	JOINT RightUpLeg_virtual
	{
		OFFSET 0.000000 0.000000 0.000000
		CHANNELS 3 Xrotation Yrotation Zrotation
		JOINT RightUpLeg
		{
			OFFSET -18.735201 -5.666702 -4.541200
			CHANNELS 3 Xrotation Yrotation Zrotation
			JOINT RightLeg
			{
				OFFSET 0.018946 -31.938133 0.493100
				CHANNELS 3 Xrotation Yrotation Zrotation
				JOINT RightFoot
				{
					OFFSET -0.018946 -31.938126 -4.336299
					CHANNELS 3 Xrotation Yrotation Zrotation
					JOINT RightToeBase
					{
						OFFSET -0.943001 -26.722004 15.023500
						CHANNELS 3 Xrotation Yrotation Zrotation
						End Site
						{
							OFFSET 0 0 0
						}
					}
				}
			}
		}
	}
	JOINT Hips_virtual
	{
		OFFSET 0.000000 0.000000 0.000000
		CHANNELS 3 Xrotation Yrotation Zrotation
		JOINT Hips
		{
			OFFSET -0.000000 -0.000000 -0.000000
			CHANNELS 3 Xrotation Yrotation Zrotation
			JOINT Spine
			{
				OFFSET 0.000000 10.199997 -0.299500
				CHANNELS 3 Xrotation Yrotation Zrotation
				JOINT Spine1
				{
					OFFSET 0.000000 11.900002 -1.516600
					CHANNELS 3 Xrotation Yrotation Zrotation
					JOINT Spine2
					{
						OFFSET 0.000000 13.600006 -2.842500
						CHANNELS 3 Xrotation Yrotation Zrotation
						JOINT Neck_virtual
						{
							OFFSET 0.000000 0.000000 0.000000
							CHANNELS 3 Xrotation Yrotation Zrotation
							JOINT Neck
							{
								OFFSET 0.000000 9.624100 -2.890100
								CHANNELS 3 Xrotation Yrotation Zrotation
								JOINT Head
								{
									OFFSET 0.000000 14.068802 -1.351900
									CHANNELS 3 Xrotation Yrotation Zrotation
									End Site
									{
										OFFSET 0 0 0
									}
								}
							}
						}
						JOINT LeftShoulder_virtual
						{
							OFFSET 0.000000 0.000000 0.000000
							CHANNELS 3 Xrotation Yrotation Zrotation
							JOINT LeftShoulder
							{
								OFFSET 15.263000 10.923401 -0.547700
								CHANNELS 3 Xrotation Yrotation Zrotation
								JOINT LeftArm
								{
									OFFSET 25.438599 -2.830597 -13.032500
									CHANNELS 3 Xrotation Yrotation Zrotation
									JOINT LeftForeArm
									{
										OFFSET 29.960503 0.000000 0.000000
										CHANNELS 3 Xrotation Yrotation Zrotation
										JOINT LeftHand
										{
											OFFSET 27.849251 0.000000 0.000000
											CHANNELS 3 Xrotation Yrotation Zrotation
											End Site
											{
												OFFSET 0 0 0
											}
										}
									}
								}
							}
						}
						JOINT RightShoulder_virtual
						{
							OFFSET 0.000000 0.000000 0.000000
							CHANNELS 3 Xrotation Yrotation Zrotation
							JOINT RightShoulder
							{
								OFFSET -15.263000 10.923401 -0.547700
								CHANNELS 3 Xrotation Yrotation Zrotation
								JOINT RightArm
								{
									OFFSET -25.438599 -2.830597 -13.032500
									CHANNELS 3 Xrotation Yrotation Zrotation
									JOINT RightForeArm
									{
										OFFSET -29.960503 0.000000 0.000000
										CHANNELS 3 Xrotation Yrotation Zrotation
										JOINT RightHand
										{
											OFFSET -27.849251 0.000000 0.000000
											CHANNELS 3 Xrotation Yrotation Zrotation
											End Site
											{
												OFFSET 0 0 0
											}
										}
									}
								}
							}
						}
					}
				}
			}
		}
	}
}
MOTION
Frames: 12
Frame Time: 0.03333333
-3.530777 85.134247 2.731148 0.000000 0.000000 0.000000 -10.678411 -53.582568 -2.772447 -25.703404 12.072447 24.945302 42.348150 -5.376542 -1.049202 -6.669739 2.334117 -18.487331 0.000000 0.000000 0.000000 -10.678411 -53.582568 -2.772447 -28.379183 3.763984 -24.386472 58.587136 4.862651 -8.420618 -20.651888 -5.383684 20.834596 0.000000 0.000000 0.000000 -10.678411 -53.582568 -2.772447 0.000000 0.000000 0.000000 6.697234 0.910685 -2.292517 13.440115 1.505931 -5.282126 0.000000 0.000000 0.000000 13.440116 1.505925 -5.282120 1.595469 1.046845 -0.164662 0.000000 0.000000 0.000000 13.440116 1.505925 -5.282120 -0.177270 -6.033949 5.204528 -21.071654 17.785765 -57.231484 179.999978 -53.681243 179.999978 0.000000 0.000000 0.000000 13.440116 1.505925 -5.282120 10.920044 26.931047 3.130400 -46.478177 38.185853 48.496098 -179.999663 69.435512 179.999650 0.000000 0.000000 0.000000 
-3.964101 85.247139 2.236160 0.000000 0.000000 0.000000 -10.900479 -53.071308 -2.503587 -24.700793 12.009754 24.262183 40.419454 -5.835938 -0.506355 -5.504277 3.044204 -19.008372 0.000000 0.000000 0.000000 -10.900479 -53.071308 -2.503587 -28.412593 3.423779 -24.017255 59.959533 4.278603 -8.221125 -22.271790 -5.645986 18.628315 0.000000 0.000000 0.000000 -10.900479 -53.071308 -2.503587 0.000000 0.000001 0.000000 6.880902 0.458648 -2.787752 13.428627 1.385310 -5.296946 0.000000 0.000000 0.000000 13.420767 1.411930 -5.309468 1.636113 1.063249 -0.184887 0.000000 0.000000 0.000000 13.420767 1.411930 -5.309468 -0.474786 -6.155470 3.198672 -17.792047 18.997985 -56.885999 179.999978 -52.339330 179.999978 0.000000 0.000000 0.000000 13.420767 1.411930 -5.309468 10.865829 26.827597 2.963929 -46.847885 38.723590 50.356567 -179.999759 72.120528 179.999745 0.000000 0.000000 0.000000 
-4.334116 85.354935 1.525669 0.000000 0.000000 0.000000 -10.726858 -51.999757 -2.026333 -24.103847 11.239017 23.457713 38.129056 -5.357990 0.335376 -3.644364 2.961773 -20.019076 0.000000 0.000000 0.000000 -10.726858 -51.999757 -2.026333 -28.261928 3.017699 -23.608634 60.991137 3.907252 -7.820335 -23.479042 -6.435406 16.928380 0.000000 0.000000 0.000000 -10.726858 -51.999757 -2.026333 -0.000001 -0.000004 -0.000000 7.703129 0.243158 -3.302935 13.471025 1.247494 -5.375647 0.000000 0.000000 0.000000 13.463736 1.291646 -5.383116 1.618911 1.032444 -0.186550 0.000000 0.000000 0.000000 13.463736 1.291646 -5.383116 -0.604219 -6.510279 2.042942 -15.274320 19.486412 -56.458077 -179.999991 -51.120401 179.999991 0.000000 0.000000 0.000000 13.463736 1.291646 -5.383116 10.874074 26.686428 2.331215 -47.669891 38.728969 52.535670 179.999704 74.887342 -179.999718 0.000000 0.000000 0.000000 
-4.596201 85.355965 0.808134 0.000000 0.000000 0.000000 -10.376567 -50.460956 -1.501244 -24.996766 9.467043 23.098651 36.449974 -4.855511 1.347514 0.854205 1.901222 -22.134005 0.000000 0.000000 0.000000 -10.376567 -50.460956 -1.501244 -27.983475 2.534268 -23.215682 62.063730 3.657440 -7.257032 -24.808178 -7.645191 15.218577 0.000000 0.000000 0.000000 -10.376567 -50.460956 -1.501244 0.000000 -0.000003 0.000000 9.082625 0.213211 -3.751952 13.571643 1.134050 -5.519535 0.000000 0.000000 0.000000 13.568762 1.181521 -5.516786 1.538386 0.967477 -0.182117 0.000000 0.000000 0.000000 13.568762 1.181521 -5.516786 -0.610944 -7.055529 1.499516 -13.733009 19.141721 -55.614416 179.999991 -50.165390 -179.999991 0.000000 0.000000 0.000000 13.568762 1.181521 -5.516786 10.915529 26.508838 1.381151 -49.008800 38.270151 54.704979 179.999486 77.610661 -179.999513 0.000000 0.000000 0.000000 
-4.703870 85.204758 0.097347 0.000000 0.000000 0.000000 -9.889695 -48.320057 -0.988685 -27.293188 6.930893 22.560673 35.788163 -4.112883 2.603033 6.359727 -0.245170 -23.669754 0.000000 0.000000 0.000000 -9.889695 -48.320057 -0.988685 -27.790346 2.048838 -22.901431 63.449725 3.655624 -6.474251 -26.003048 -9.334815 13.526338 0.000000 0.000000 0.000000 -9.889695 -48.320057 -0.988685 0.000001 0.000001 -0.000001 11.206670 0.425299 -4.043090 13.743581 1.075066 -5.733797 0.000000 0.000000 0.000000 13.747221 1.106314 -5.720684 1.361024 0.862255 -0.178084 0.000000 0.000000 0.000000 13.747221 1.106314 -5.720684 -0.478522 -7.847193 1.562675 -13.760019 17.595773 -53.833779 179.999978 -49.527051 179.999978 0.000000 0.000000 0.000000 13.747221 1.106314 -5.720684 10.980231 26.274278 0.074711 -50.899939 37.183987 56.537734 179.999336 80.068723 -179.999336 0.000000 0.000000 0.000000 
-4.742034 84.997017 -0.673723 0.000000 0.000000 0.000000 -9.307218 -45.532766 -0.497112 -30.519280 3.878725 21.933641 33.903932 -4.102921 3.784461 15.569293 -3.561133 -24.975401 0.000000 0.000000 0.000000 -9.307218 -45.532766 -0.497112 -27.730302 1.514512 -22.719074 65.051596 3.982272 -5.450092 -26.710368 -11.470394 12.020301 0.000000 0.000000 0.000000 -9.307218 -45.532766 -0.497112 -0.000001 0.000000 0.000000 14.164693 0.900912 -4.124394 13.982870 1.088455 -5.978410 0.000000 0.000000 0.000000 13.992933 1.088515 -5.960025 1.058629 0.717364 -0.184687 0.000000 0.000000 0.000000 13.992933 1.088515 -5.960025 -0.208929 -8.911127 2.099251 -15.686692 14.804327 -50.864217 -180.000005 -49.224316 180.000005 0.000000 0.000000 0.000000 13.992933 1.088515 -5.960025 11.035418 25.962041 -1.553423 -53.207922 35.389102 57.573884 179.998858 81.983765 -179.998899 0.000000 0.000000 0.000000 
-4.704517 84.688568 -1.362249 0.000000 0.000000 0.000000 -8.637178 -42.173420 -0.033019 -33.294082 1.166637 21.147509 28.030736 -5.344912 4.485244 29.408045 -8.289211 -25.828405 0.000000 0.000000 0.000000 -8.637178 -42.173420 -0.033019 -27.721675 0.934635 -22.818347 66.799127 4.544182 -4.222506 -27.064553 -13.982435 10.933211 0.000000 0.000000 0.000000 -8.637178 -42.173420 -0.033019 -0.000001 0.000000 0.000000 17.901654 1.629942 -3.948891 14.257638 1.175850 -6.173252 0.000000 0.000000 0.000000 14.271720 1.144410 -6.159654 0.617452 0.541056 -0.213837 0.000000 0.000000 0.000000 14.271720 1.144410 -6.159654 0.113019 -10.231133 2.620951 -19.533084 10.946753 -46.589407 -179.999991 -49.272274 179.999991 0.000000 0.000000 0.000000 14.271720 1.144410 -6.159654 11.028366 25.558196 -3.395087 -55.659567 32.942791 57.345947 -179.999991 83.107782 -179.999991 0.000000 0.000000 0.000000 
-4.705377 84.489456 -2.135653 0.000000 0.000000 0.000000 -7.841876 -38.411447 0.527352 -31.496502 0.529468 22.011050 10.537436 -6.787109 2.906814 49.090752 -14.895642 -27.747744 0.000000 0.000000 0.000000 -7.841876 -38.411447 0.527352 -27.724284 0.257165 -23.191433 68.179570 5.112032 -2.900969 -26.650853 -16.620130 10.692111 0.000000 0.000000 0.000000 -7.841876 -38.411447 0.527352 0.000000 0.000002 0.000000 22.217787 2.516541 -3.626551 14.506009 1.326302 -6.235245 0.000000 0.000000 0.000000 14.519521 1.280009 -6.240687 0.044247 0.347603 -0.275959 0.000000 0.000000 0.000000 14.519521 1.280009 -6.240687 0.471800 -11.755497 3.045654 -24.696793 6.508209 -41.779448 179.999991 -49.702508 -179.999991 0.000000 0.000000 0.000000 14.519521 1.280009 -6.240687 10.903214 25.064259 -5.298815 -57.994699 30.052873 55.571133 179.999308 83.377595 -179.999349 0.000000 0.000000 0.000000 
-4.795827 84.540833 -3.150814 0.000000 0.000000 0.000000 -6.852657 -34.491786 1.227206 -33.103970 -0.576007 21.154967 1.353978 -9.145024 1.822487 58.071518 -17.816642 -26.424223 0.000000 0.000000 0.000000 -6.852657 -34.491786 1.227206 -27.875260 -0.497497 -23.721034 68.826355 5.449540 -1.639685 -25.064031 -19.013356 11.623889 0.000000 0.000000 0.000000 -6.852657 -34.491786 1.227206 0.000000 0.000000 0.000000 26.812299 3.461864 -3.255727 14.655815 1.519297 -6.126758 0.000000 0.000000 0.000000 14.662878 1.483529 -6.167035 -0.631961 0.153855 -0.376365 0.000000 0.000000 0.000000 14.662878 1.483529 -6.167035 0.825250 -13.394387 3.259603 -30.529720 1.995660 -37.132016 -180.000005 -50.516608 -179.999991 0.000000 0.000000 0.000000 14.662878 1.483529 -6.167035 10.629953 24.503655 -7.123618 -60.104879 27.021461 52.261951 179.999882 83.029453 -179.999923 0.000000 0.000000 0.000000 
-4.980006 85.104042 -4.803352 0.000000 0.000000 0.000000 -5.617020 -30.515120 2.343198 -37.885686 -2.364290 19.662050 -0.336545 -9.044405 1.452336 58.713051 -19.767116 -24.322792 0.000000 0.000000 0.000000 -5.617020 -30.515120 2.343198 -28.335520 -1.183874 -24.303983 68.293340 5.173038 -0.618503 -21.990542 -20.667181 13.735397 0.000000 0.000000 0.000000 -5.617020 -30.515120 2.343198 0.000000 0.000000 0.000000 31.381383 4.102571 -3.124582 14.660613 1.723766 -5.877991 0.000000 0.000000 0.000000 14.656401 1.718881 -5.964469 -1.363374 -0.023691 -0.513448 0.000000 0.000000 0.000000 14.656401 1.718881 -5.964469 1.129432 -15.035772 3.202516 -36.516005 -2.272843 -33.079719 180.000005 -51.724329 -179.999991 0.000000 0.000000 0.000000 14.656401 1.718881 -5.964469 10.234570 23.922603 -8.797840 -62.037297 24.145040 47.671326 -179.999814 82.562015 179.999841 0.000000 0.000000 0.000000 
-5.228813 85.984604 -6.978333 0.000000 0.000000 0.000000 -4.128560 -26.646009 3.781315 -44.084268 -3.952255 17.885265 1.774469 -9.226967 1.515968 54.152656 -18.553657 -24.650428 0.000000 0.000000 0.000000 -4.128560 -26.646009 3.781315 -29.575634 -1.587484 -24.896171 67.127707 4.418355 -0.015278 -17.776302 -21.067216 16.324939 0.000000 0.000000 0.000000 -4.128560 -26.646009 3.781315 0.000000 0.000000 0.000000 35.662900 4.354856 -3.225699 14.524297 1.900858 -5.564956 0.000000 0.000000 0.000000 14.508041 1.932578 -5.698224 -2.091081 -0.172856 -0.676678 0.000000 0.000000 0.000000 14.508041 1.932578 -5.698224 1.346269 -16.566386 2.844989 -42.339800 -6.338947 -29.746546 -179.999991 -53.424425 -180.000005 0.000000 0.000000 0.000000 14.508041 1.932578 -5.698224 9.778198 23.398440 -10.255338 -63.885143 21.703524 42.109253 179.999336 82.594985 -179.999336 0.000000 0.000000 0.000000 
-5.543766 86.858994 -9.320015 0.000000 0.000000 0.000000 -2.448860 -23.065655 5.321101 -49.745470 -4.694541 16.538712 3.597365 -9.030278 1.379441 49.772671 -14.726598 -26.066287 0.000000 0.000000 0.000000 -2.448860 -23.065655 5.321101 -31.568322 -1.827958 -25.207397 66.016476 3.358316 0.108914 -14.458389 -19.919118 17.539139 0.000000 0.000000 0.000000 -2.448860 -23.065655 5.321101 0.000000 0.000000 -0.000001 39.501921 4.359899 -3.493961 14.295304 2.016583 -5.262746 0.000000 0.000000 0.000000 14.271133 2.075827 -5.431048 -2.755818 -0.286801 -0.848021 0.000000 0.000000 0.000000 14.271133 2.075827 -5.431048 1.351627 -17.899935 1.838094 -47.860081 -10.837109 -26.894993 179.999991 -55.925452 180.000005 0.000000 0.000000 0.000000 14.271133 2.075827 -5.431048 9.433678 22.980482 -11.701349 -65.771184 19.699177 36.004779 179.998735 83.637668 -179.998735 0.000000 0.000000 0.000000 
